<?xml version="1.0" encoding="utf-8"?><svg viewBox="0 0 970.667 970.667" xmlns="http://www.w3.org/2000/svg" xmlns:xlink="http://www.w3.org/1999/xlink"><style>:root>svg{display:none}:root>svg:target{display:block}</style><svg fill="none" viewBox="0 0 32 32" id="Telegram" xmlns="http://www.w3.org/2000/svg"><rect width="32" height="32" rx="16" fill="#75605F"/><path d="M7.192 15.648c4.652-2.07 7.755-3.435 9.308-4.094 4.432-1.883 5.353-2.21 5.953-2.22.132-.003.428.03.619.19a.691.691 0 0 1 .227.44c.021.127.048.416.027.642-.24 2.577-1.28 8.83-1.809 11.716-.223 1.221-.664 1.63-1.09 1.67-.927.088-1.631-.625-2.529-1.225-1.405-.94-2.198-1.526-3.562-2.443-1.575-1.06-.554-1.643.344-2.596.235-.249 4.319-4.042 4.398-4.386.01-.043.019-.203-.074-.288-.094-.084-.231-.055-.33-.032-.142.032-2.386 1.547-6.733 4.543-.637.447-1.214.664-1.731.653-.57-.013-1.666-.33-2.481-.6-1-.331-1.794-.507-1.725-1.07.036-.294.432-.594 1.188-.9z" fill="#fff"/></svg><svg fill="none" viewBox="0 0 32 32" id="VK" xmlns="http://www.w3.org/2000/svg"><rect width="32" height="32" rx="16" fill="#75605F"/><path fill-rule="evenodd" clip-rule="evenodd" d="M26.177 11.023c.149-.495 0-.858-.706-.858h-2.334c-.593 0-.866.314-1.015.66 0 0-1.187 2.893-2.868 4.772-.544.544-.791.717-1.088.717-.148 0-.363-.173-.363-.667v-4.624c0-.594-.172-.858-.667-.858H13.47c-.371 0-.594.275-.594.537 0 .562.84.692.927 2.274v3.437c0 .754-.136.89-.433.89-.79 0-2.715-2.906-3.857-6.23-.224-.647-.448-.908-1.045-.908H6.134c-.667 0-.8.314-.8.66 0 .618.79 3.684 3.684 7.74 1.928 2.768 4.645 4.27 7.118 4.27 1.484 0 1.667-.334 1.667-.908v-2.093c0-.667.14-.8.61-.8.346 0 .94.173 2.325 1.508 1.582 1.582 1.843 2.293 2.733 2.293h2.334c.667 0 1-.334.808-.992-.21-.656-.966-1.607-1.969-2.735-.544-.643-1.36-1.335-1.607-1.681-.346-.445-.247-.643 0-1.038 0 0 2.844-4.006 3.14-5.366z" fill="#fff"/></svg><svg fill="none" viewBox="0 0 11 9" id="arrow" xmlns="http://www.w3.org/2000/svg"><path d="M8.33 1.042a.469.469 0 1 0-.66.666L8.772 2.8c.447.443.754.748.961 1.007.068.084.12.158.161.224H.5a.469.469 0 0 0 0 .938h9.394c-.04.066-.093.14-.16.224-.208.259-.515.564-.962 1.007L7.67 7.292a.469.469 0 1 0 .66.666l1.122-1.112c.422-.419.768-.76 1.012-1.066.255-.317.44-.639.489-1.025a2.017 2.017 0 0 0 0-.51c-.05-.386-.234-.708-.489-1.025-.245-.305-.59-.647-1.012-1.066L8.33 1.042z" fill="#333"/></svg><svg fill="none" viewBox="0 0 42 42" id="arrowfaq" xmlns="http://www.w3.org/2000/svg"><path d="M14.338 20.5a.5.5 0 1 0 0 1v-1zm10.352-4.022a.5.5 0 1 0-.704.71l.704-.71zm1.118 1.812.352-.355-.352.355zm0 5.42-.352-.354.352.355zm-1.822 1.102a.5.5 0 1 0 .704.71l-.704-.71zm3.67-4.073.495-.063-.496.063zm0 .522.495.064-.496-.064zM21 40.5C10.23 40.5 1.5 31.77 1.5 21h-1C.5 32.322 9.678 41.5 21 41.5v-1zM1.5 21C1.5 10.23 10.23 1.5 21 1.5v-1C9.678.5.5 9.678.5 21h1zM21 1.5c10.77 0 19.5 8.73 19.5 19.5h1C41.5 9.678 32.322.5 21 .5v1zM40.5 21c0 10.77-8.73 19.5-19.5 19.5v1c11.322 0 20.5-9.178 20.5-20.5h-1zm-26.162.5h13.334v-1H14.338v1zm9.649-4.311 1.469 1.456.704-.71-1.47-1.457-.704.71zm1.469 6.167-1.47 1.456.704.71 1.47-1.456-.704-.71zm0-4.711c.594.589 1.009 1.001 1.291 1.352.276.344.384.58.412.805l.992-.126c-.061-.483-.292-.89-.624-1.305-.326-.406-.79-.864-1.367-1.436l-.704.71zm.704 5.42c.577-.572 1.04-1.03 1.367-1.436.332-.414.563-.822.624-1.305l-.992-.126c-.028.225-.136.461-.412.805-.282.351-.697.764-1.291 1.353l.704.71zm1-3.263c.008.066.012.132.012.198h1a2.57 2.57 0 0 0-.02-.324l-.993.126zm.012.198c0 .066-.004.132-.013.198l.992.127a2.57 2.57 0 0 0 .02-.325h-1z" fill="#75605F"/></svg><svg fill="none" viewBox="0 0 36 36" id="check" xmlns="http://www.w3.org/2000/svg"><path d="m24 13.5-5.195 6.234c-1.069 1.282-1.602 1.923-2.305 1.923-.703 0-1.237-.641-2.305-1.923L12 17.1M8.392 7.528a4.435 4.435 0 0 0 5.343-3.084c1.225-4.29 7.305-4.29 8.53 0a4.435 4.435 0 0 0 5.343 3.084c4.328-1.084 7.368 4.182 4.264 7.387a4.435 4.435 0 0 0 0 6.17c3.104 3.205.064 8.471-4.264 7.386a4.435 4.435 0 0 0-5.343 3.085c-1.225 4.29-7.305 4.29-8.53 0a4.435 4.435 0 0 0-5.343-3.085c-4.328 1.085-7.368-4.18-4.265-7.386a4.435 4.435 0 0 0 0-6.17c-3.103-3.205-.063-8.471 4.265-7.387z" stroke="#75605F" stroke-width="1.5" stroke-linecap="round"/></svg><svg fill="none" viewBox="0 0 11 8" id="checked" xmlns="http://www.w3.org/2000/svg"><path d="m1 4 2.828 2.828 5.657-5.657" stroke="#75605F" stroke-width="1.5" stroke-linecap="round" stroke-linejoin="round"/></svg><svg fill="none" viewBox="0 0 36 36" id="key" xmlns="http://www.w3.org/2000/svg"><path d="M16.5 18a3 3 0 1 1-6 0 3 3 0 0 1 6 0zm0 0h8.823c.108 0 .208.061.256.158v0a3 3 0 0 1 0 2.684L25.5 21M21 21l.08-.158a3 3 0 0 0 0-2.684L21 18m12 0c0 8.284-6.716 15-15 15-8.284 0-15-6.716-15-15C3 9.716 9.716 3 18 3c8.284 0 15 6.716 15 15z" stroke="#75605F" stroke-width="1.5" stroke-linecap="round"/></svg><svg fill="none" viewBox="0 0 14 8" id="listarrow" xmlns="http://www.w3.org/2000/svg"><path opacity=".6" d="M7 8 .072.5h13.856L7 8z" fill="#75605F"/></svg><svg fill="none" viewBox="0 0 20 20" id="location" xmlns="http://www.w3.org/2000/svg"><g opacity=".6" fill-rule="evenodd" clip-rule="evenodd" fill="#75605F"><path d="M10 5.208a3.125 3.125 0 1 0 0 6.25 3.125 3.125 0 0 0 0-6.25zM8.125 8.335a1.875 1.875 0 1 1 3.75 0 1.875 1.875 0 0 1-3.75 0z"/><path d="M10 .208c-4.07 0-7.292 3.536-7.292 7.8 0 1.367.68 2.977 1.534 4.488.869 1.535 1.977 3.068 2.949 4.307l.032.041c.475.605.879 1.12 1.27 1.476.428.389.9.643 1.507.643.608 0 1.079-.254 1.507-.643.391-.355.795-.87 1.27-1.476l.032-.041c.972-1.24 2.08-2.772 2.949-4.307.855-1.511 1.534-3.121 1.534-4.489 0-4.263-3.223-7.799-7.292-7.799zm-6.042 7.8c0-3.661 2.748-6.55 6.042-6.55 3.294 0 6.042 2.889 6.042 6.55 0 1.021-.533 2.39-1.372 3.872-.825 1.459-1.891 2.936-2.844 4.152-.516.657-.856 1.087-1.16 1.363-.277.252-.463.318-.666.318s-.389-.066-.666-.318c-.304-.276-.644-.706-1.16-1.363-.952-1.216-2.019-2.693-2.844-4.152-.839-1.483-1.372-2.85-1.372-3.873z"/></g></svg><svg fill="none" viewBox="0 0 137 43" id="logo" xmlns="http://www.w3.org/2000/svg"><g clip-path="url(#ha)" fill="#333"><path d="M35.673 23.439c-2.92-4.421-6.503-1.999-11.26-.848-4.756 1.15-3.613-6.36.663-13.021 4.275-6.662.09-9.084-3.131-6.904C19.81 4.11 9.087 8.977 7.192 4.3c-.5-1.232-.987-2.551-1.77-3.338-.166-.168-.24-.061-.184.123.116.376.207.667.374 1.384.175.715.364 1.589.552 2.598.196 1.008.369 2.153.518 3.408.14 1.256.275 2.622.332 4.07.043.724.057 1.469.076 2.23.014.38.006.766.003 1.154l-.01 1.177a45.19 45.19 0 0 0 .002 2.358c.012.395.034.79.067 1.18.033.389.077.777.158 1.131.04.177.088.346.147.489a.93.93 0 0 0 .183.301c.056.046.071.058.162.065a1.2 1.2 0 0 0 .392-.062c.326-.095.696-.262 1.074-.43.38-.17.775-.348 1.189-.499.824-.304 1.733-.52 2.662-.508.864.02 1.729.094 2.581.269a9.59 9.59 0 0 1 2.442.86c.758.39 1.449.849 2.093 1.33 1.289.961 2.4 2.01 3.449 2.999 1.046.99 2.007 1.964 2.883 2.844.42.399.9.74 1.363 1.026.468.284.942.506 1.403.66.924.315 1.8.338 2.486.188.344-.074.64-.185.896-.293a4.73 4.73 0 0 0 .62-.337l.213-.143c.06-.044.108-.082.148-.113l.122-.092.003-.003a.036.036 0 0 1 .05.007.037.037 0 0 1-.005.05l-.117.1-.144.122c-.059.047-.13.098-.208.157a4.51 4.51 0 0 1-1.53.733c-.71.19-1.634.207-2.617-.081-.981-.284-2.024-.83-2.975-1.66-.913-.86-1.895-1.794-2.956-2.76-1.063-.96-2.194-1.968-3.455-2.889a14.248 14.248 0 0 0-2.016-1.242 9.278 9.278 0 0 0-2.285-.78 13.84 13.84 0 0 0-2.447-.241c-.82-.006-1.636.187-2.41.477-.387.145-.768.31-1.15.477-.381.166-.761.34-1.168.458-.204.055-.417.1-.637.083a.933.933 0 0 1-.597-.263 1.6 1.6 0 0 1-.343-.546 3.72 3.72 0 0 1-.18-.603c-.17-.817-.2-1.64-.218-2.45-.014-.809.005-1.608.032-2.393.043-1.568.065-3.085.02-4.523a68.592 68.592 0 0 0-.22-4.047 63.324 63.324 0 0 0-.387-3.403 48.2 48.2 0 0 0-.438-2.603c-.172-.883-.27-1.366-.486-1.675-.587-.836-1.449-1.02-2.499-.65C.881.728-.27 3.915.055 14.838.37 25.28 6.109 38.27 17.455 39.4v1.23c-6.355.042-11.381.556-11.381 1.184 0 .656 5.46 1.187 12.194 1.187C25 43 30.46 42.47 30.46 41.813c0-.628-5.025-1.142-11.38-1.183v-1.143c12.419-.008 20.126-10.702 16.593-16.048zm35.66 7.087c1.338 3.436 2.006 4.333 3.677 4.557v.15H63.273v-.15c2.6-.224 4.086-1.046 2.786-4.333l-.743-1.868H51.128l-.817 1.868c-1.374 3.212.111 3.885 2.191 4.333v.15h-6.834v-.15c1.56-.448 2.451-1.158 3.826-4.37l8.134-18.865-.074-1.084.705-.41L62.642 8c0 .224.074.672.854 2.615l7.837 19.91zm-19.945-2.317h13.668l-6.574-16.473-7.094 16.473zm45.128 5.828c.52.336 1.486.598 2.08.672v.15l-6.797.56v-3.25c-1.746 1.382-4.68 3.325-8.097 3.325-2.229 0-5.386-1.158-5.386-6.799v-8.031c0-2.018-.334-2.727-2.005-3.475v-.074h6.945l-.223 2.577v8.928c0 4.184 1.486 5.118 3.12 5.118 2.377 0 4.16-1.27 5.646-2.465v-10.61c0-2.017-.334-2.726-2.006-3.474v-.074h6.946l-.223 2.577v14.345zm15.971-17.109c.743 0 1.337.112 2.043.448l-3.714 6.201h-.149c.855-2.241.149-4.034-1.225-4.034-1.709 0-2.638 2.241-2.935 4.819v7.396c0 2.018.335 2.727 1.449 3.474h-6.351l.185-2.577V18.31c-.52-.336-1.485-.598-2.265-.672v-.15l7.168-.56-.186 2.764v1.196h.483c.854-2.391 2.86-3.96 5.497-3.96zm23.066 15.241c0 2.018.334 2.653 1.448 3.4v.112l-7.094-1.158s.037 0 .037-.038c-1.188.635-2.674 1.009-4.42 1.009-5.423 0-8.951-3.325-8.951-8.517 0-5.454 3.788-10.086 11.663-10.086 2.377 0 4.94.448 7.317 1.382v13.896zM121.29 24.81c0 5.417 2.823 9.488 6.574 9.488 1.226 0 2.155-.448 2.897-1.27.038-.373.075-.784.075-1.344V19.618c-1.152-1.27-2.489-2.017-4.272-2.017-3.491 0-5.274 2.876-5.274 7.21z"/></g><defs><clipPath id="ha"><path fill="#fff" d="M0 0h137v43H0z"/></clipPath></defs></svg><svg fill="none" viewBox="0 0 20 20" id="mail" xmlns="http://www.w3.org/2000/svg"><path opacity=".6" fill-rule="evenodd" clip-rule="evenodd" d="M14.553 1.978c-.952-.103-2.152-.103-3.682-.103H9.129c-1.53 0-2.73 0-3.682.103-.971.105-1.758.324-2.43.812a4.792 4.792 0 0 0-1.06 1.06 3.65 3.65 0 0 0-.349.59c-.301.638-.436 1.379-.501 2.261-.065.877-.065 1.95-.065 3.275v.062c0 1.53 0 2.73.103 3.682.105.97.324 1.758.812 2.43a4.78 4.78 0 0 0 1.06 1.06c.672.488 1.459.707 2.43.812.952.103 2.151.103 3.682.103h1.742c1.53 0 2.73 0 3.682-.103.971-.105 1.758-.324 2.43-.812a4.794 4.794 0 0 0 1.06-1.06c.488-.672.707-1.46.812-2.43.103-.952.103-2.152.103-3.682v-.062c0-1.334 0-2.414-.066-3.293-.067-.887-.205-1.63-.513-2.27a3.646 3.646 0 0 0-.336-.563 4.793 4.793 0 0 0-1.06-1.06c-.672-.488-1.459-.707-2.43-.812zM3.752 3.801c.423-.307.965-.486 1.83-.58.876-.095 2.008-.096 3.585-.096h1.666c1.577 0 2.709 0 3.585.096.865.094 1.407.273 1.83.58.3.219.565.483.784.783L15.45 6.166c-1.402 1.4-2.41 2.407-3.278 3.07-.855.652-1.502.913-2.173.913s-1.318-.261-2.173-.913c-.869-.663-1.876-1.67-3.278-3.07L2.97 4.583c.218-.3.482-.564.783-.783zM17.53 5.853c.05.267.088.571.114.924.063.827.063 1.86.063 3.223 0 1.576 0 2.708-.095 3.585-.094.865-.273 1.407-.581 1.83-.219.3-.483.565-.784.784-.423.307-.965.486-1.83.58-.876.095-2.008.096-3.585.096H9.167c-1.577 0-2.709 0-3.585-.096-.865-.093-1.407-.273-1.83-.58a3.542 3.542 0 0 1-.784-.784c-.308-.423-.487-.965-.58-1.83-.096-.877-.096-2.009-.096-3.585 0-1.353 0-2.381.061-3.206a8.6 8.6 0 0 1 .116-.941l1.23 1.23c1.36 1.36 2.426 2.426 3.37 3.146.966.737 1.876 1.17 2.931 1.17 1.055 0 1.965-.433 2.93-1.17.944-.72 2.01-1.786 3.37-3.146l1.231-1.23z" fill="#75605F"/></svg><svg fill="none" viewBox="0 0 36 36" id="money" xmlns="http://www.w3.org/2000/svg"><path d="M17.25 28.5a.75.75 0 0 0 1.5 0h-1.5zm1.5-21a.75.75 0 0 0-1.5 0h1.5zm3.231 4.99a.75.75 0 1 0 1.3-.75l-1.3.75zm.086-1.35-.649.374.65-.375zm-5.372 6.38.259-.704-.259.704zm2.61.96.26-.704-.26.704zm-5.372 6.38-.65.376.65-.375zm.086-1.35a.75.75 0 0 0-1.3.75l1.3-.75zm5.973 2.974-.375-.65.375.65zM16.009 9.516l.375.65-.375-.65zM32.25 18c0 7.87-6.38 14.25-14.25 14.25v1.5c8.698 0 15.75-7.052 15.75-15.75h-1.5zM18 32.25c-7.87 0-14.25-6.38-14.25-14.25h-1.5c0 8.698 7.052 15.75 15.75 15.75v-1.5zM3.75 18c0-7.87 6.38-14.25 14.25-14.25v-1.5C9.302 2.25 2.25 9.302 2.25 18h1.5zM18 3.75c7.87 0 14.25 6.38 14.25 14.25h1.5c0-8.698-7.052-15.75-15.75-15.75v1.5zm5.28 7.99-.563-.976-1.299.75.563.976 1.3-.75zm-8.698 12.746-.563-.976-1.3.75.564.976 1.3-.75zm4.464-5.302c2.933 1.079 3.277 5.088.57 6.65l.75 1.3c3.808-2.199 3.324-7.84-.802-9.358l-.518 1.408zM15.634 8.866c-3.808 2.199-3.324 7.84.802 9.358l.518-1.408c-2.933-1.079-3.277-5.088-.57-6.65l-.75-1.3zM18.75 28.5v-1.426h-1.5V28.5h1.5zm0-1.426V18h-1.5v9.074h1.5zm.867-1.24a3.666 3.666 0 0 1-1.655.49l.076 1.499a5.166 5.166 0 0 0 2.329-.69l-.75-1.298zm-1.655.49a3.685 3.685 0 0 1-3.38-1.838l-1.299.75a5.185 5.185 0 0 0 4.755 2.587l-.076-1.498zm-1.526-8.1 1.305.48.518-1.408-1.305-.48-.518 1.408zm1.305.48 1.305.48.518-1.408-1.305-.48-.518 1.408zM18.75 18V8.926h-1.5V18h1.5zm0-9.074V7.5h-1.5v1.426h1.5zm3.967 1.838a5.185 5.185 0 0 0-4.755-2.587l.076 1.499c1.34-.068 2.665.6 3.38 1.838l1.299-.75zm-4.755-2.587a5.167 5.167 0 0 0-2.329.69l.75 1.298a3.667 3.667 0 0 1 1.655-.49l-.076-1.498z" fill="#75605F"/></svg><svg fill="none" viewBox="0 0 19 19" id="phone" xmlns="http://www.w3.org/2000/svg"><path opacity=".6" fill-rule="evenodd" clip-rule="evenodd" d="M5.642.698a2.647 2.647 0 0 0-3.725.14l-.864.864a3.596 3.596 0 0 0-.967 3.322 17.965 17.965 0 0 0 13.64 13.64 3.596 3.596 0 0 0 3.322-.967l.864-.864a2.647 2.647 0 0 0 .14-3.725 4.182 4.182 0 0 0-.14-.144l-1.414-1.414a3.377 3.377 0 0 0-3.738-.708 1.934 1.934 0 0 1-2.14-.405L8.313 8.13a1.934 1.934 0 0 1-.405-2.14A3.377 3.377 0 0 0 7.2 2.252L5.786.838a4.934 4.934 0 0 0-.144-.14zM3.037 1.76a1.203 1.203 0 0 1 1.629 0l.11.109 1.403 1.403c.562.562.723 1.411.405 2.14a3.377 3.377 0 0 0 .708 3.738L9.6 11.458a3.377 3.377 0 0 0 3.738.708 1.934 1.934 0 0 1 2.14.405l1.404 1.404.108.11c.423.46.423 1.167 0 1.628a4.51 4.51 0 0 1-.108.11l-.854.853c-.52.52-1.27.738-1.988.579A16.52 16.52 0 0 1 1.495 4.71a2.152 2.152 0 0 1 .58-1.988l.852-.853a4.52 4.52 0 0 1 .11-.109z" fill="#75605F"/></svg><svg fill="none" viewBox="0 0 36 36" id="quality" xmlns="http://www.w3.org/2000/svg"><path d="m16.035 8.975-.716-.225.716.225zm-3.18 5.335.45-.6-.45.6zm.751 2.386.716.226-.716-.226zm3.18 2.387-.45-.6.45.6zm2.428 0 .45-.6-.45.6zm3.18-2.386-.716.225.716-.226zm.75-2.387-.45-.6.45.6zm-3.18-5.335.716-.225-.715.225zM14.81 26.747l-.65-.375.65.375zm-2.635 4.563.65.375-.65-.375zm-9.428-5.444-.65-.375.65.375zm2.634-4.563.65.375-.65-.375zm3.97 9.765-.71.243.71-.243zm-.366-1.07.71-.242-.71.242zm-3.507-2.024-.145-.736.145.736zm-1.11.218.145.736-.144-.736zm3.496-.302.375-.65-.375.65zm-5.946.318-.616.429.616-.43zm13.653-2.81-.6-.451-.035.048-.028.052.663.35zm5.203 1.349.65-.375-.65.375zm2.635 4.563.65-.375-.65.375zm9.429-5.444.65-.375-.65.375zm-2.635-4.563-.65.375.65-.375zm-3.969 9.765.71.243-.71-.243zm.366-1.07-.71-.242.71.242zm3.506-2.024.145-.736-.145.736zm1.11.218-.145.736.145-.736zm2.45.016.616.429-.615-.43zm-13.66-2.822h-.75v.185l.087.164.664-.35zm-4.34-.113.144-.736-.145.736zm4.34.06-.124-.74.125.74zM28.67 19l-.667-.344.667.344zm-21.947.2-.563-.496.563.495zm.027-5.7C6.75 7.287 11.787 2.25 18 2.25V.75C10.958.75 5.25 6.458 5.25 13.5h1.5zM18 2.25c6.213 0 11.25 5.037 11.25 11.25h1.5C30.75 6.458 25.042.75 18 .75v1.5zm-3.93 8.95c1.236 0 2.31-.821 2.68-2l-1.43-.45c-.183.58-.696.95-1.25.95v1.5zm-.764 2.51c-1.087-.815-.463-2.51.764-2.51V9.7c-2.776 0-3.817 3.595-1.665 5.21l.9-1.2zm1.016 3.212a2.924 2.924 0 0 0-1.016-3.212l-.9 1.2c.463.348.668.978.485 1.561l1.43.45zm2.013 1.56c-.512.386-1.093.327-1.528 0a1.384 1.384 0 0 1-.485-1.56l-1.431-.45a2.883 2.883 0 0 0 1.015 3.21c.905.68 2.223.831 3.33 0l-.9-1.2zm3.33 0a2.763 2.763 0 0 0-3.33 0l.9 1.2a1.263 1.263 0 0 1 1.53 0l.9-1.2zm2.013-1.56a1.383 1.383 0 0 1-.485 1.56c-.435.327-1.016.386-1.528 0l-.9 1.2c1.106.831 2.424.68 3.328 0a2.883 2.883 0 0 0 1.016-3.21l-1.43.45zm1.016-3.212a2.924 2.924 0 0 0-1.016 3.212l1.431-.45a1.424 1.424 0 0 1 .485-1.562l-.9-1.2zm-.764-2.51c1.227 0 1.85 1.695.764 2.51l.9 1.2c2.153-1.615 1.112-5.21-1.664-5.21v1.5zm-2.68-2c.37 1.179 1.444 2 2.68 2V9.7c-.554 0-1.067-.37-1.25-.95l-1.43.45zm1.43-.45c-.838-2.667-4.522-2.667-5.36 0l1.43.45a1.297 1.297 0 0 1 2.5 0l1.43-.45zm-6.52 17.622-2.635 4.563 1.299.75 2.635-4.563-1.3-.75zm-10.765-.13 2.635-4.564-1.3-.75-2.634 4.563 1.3.75zm6.664 4.584-.366-1.07-1.42.485.367 1.07 1.419-.485zm-4.727-3.588-1.11.218.29 1.472 1.11-.218-.29-1.472zm4.361 2.518c-.2-.589-.373-1.097-.565-1.489-.2-.41-.462-.78-.89-1.026l-.75 1.299c.07.04.162.118.293.387.14.287.28.689.493 1.314l1.42-.485zM5.622 28.71c.648-.128 1.066-.209 1.385-.23.298-.02.41.02.481.06l.75-1.3c-.428-.246-.879-.288-1.334-.257-.435.03-.962.135-1.572.255l.29 1.472zm-3.526-3.22c-.36.623-.672 1.16-.847 1.595-.168.417-.323 1.013.052 1.55l1.23-.857c.09.128-.023.196.11-.133.125-.312.37-.74.754-1.405l-1.299-.75zm2.127 1.965c-.747.147-1.223.239-1.552.255-.346.017-.233-.066-.14.068l-1.23.858c.38.544.996.595 1.444.572.465-.023 1.07-.144 1.767-.281l-.29-1.472zm7.302 3.48c-.384.665-.632 1.09-.84 1.355-.218.279-.215.147-.06.16l-.128 1.495c.654.056 1.092-.376 1.37-.73.288-.369.598-.909.957-1.53l-1.3-.75zm-2.885.375c.23.672.427 1.257.64 1.67.204.4.556.908 1.217.965l.128-1.494c.163.014.147.153-.01-.155-.151-.293-.31-.751-.556-1.471l-1.42.485zm-2.61-9.633c.632-1.095.947-1.634 1.256-1.985l-1.127-.99c-.432.491-.833 1.194-1.428 2.225l1.299.75zm9.429 5.444c.316-.549.574-.995.774-1.374l-1.326-.7c-.184.347-.426.766-.747 1.324l1.299.75zm4.665 0 2.635 4.563 1.299-.75-2.635-4.563-1.3.75zm13.362-1.63-2.634-4.564-1.3.75 2.635 4.563 1.3-.75zm-6.543 5.819.366-1.07-1.42-.485-.366 1.07 1.42.485zm3.017-2.601 1.11.218.29-1.472-1.11-.218-.29 1.472zm-2.651 1.53c.213-.624.352-1.026.493-1.313.13-.269.222-.347.292-.387l-.75-1.3c-.428.248-.69.617-.89 1.027-.192.392-.364.9-.565 1.489l1.42.485zm2.941-3.002c-.61-.12-1.136-.225-1.571-.255-.456-.031-.907.01-1.335.258l.75 1.299c.07-.04.184-.08.482-.06.319.021.736.102 1.384.23l.29-1.472zm1.937-.997c.385.666.63 1.093.755 1.405.132.33.02.26.109.133l1.23.858c.375-.538.22-1.134.052-1.55-.175-.435-.487-.973-.847-1.596l-1.299.75zm-1.117 2.687c.697.137 1.303.258 1.767.281.448.023 1.065-.028 1.444-.572l-1.23-.858c.093-.134.206-.05-.14-.068-.328-.016-.805-.108-1.552-.255l-.289 1.472zm-8.311 2.757c.359.622.668 1.162.957 1.531.278.354.715.786 1.37.73l-.129-1.494c.156-.014.159.118-.06-.161-.207-.265-.455-.69-.84-1.356l-1.298.75zm2.764-.86c-.246.72-.404 1.18-.555 1.472-.158.308-.174.169-.01.155l.127 1.494c.661-.056 1.013-.565 1.218-.964.212-.414.41-1 .64-1.671l-1.42-.485zm-4.1-4.453a43.277 43.277 0 0 1-.754-1.336l-1.327.7c.201.38.462.831.782 1.386l1.299-.75zm-13.51-7.884A11.2 11.2 0 0 1 6.75 13.5h-1.5a12.7 12.7 0 0 0 1.32 5.654l1.343-.666zM18 24.75c-.75 0-1.483-.073-2.19-.213l-.29 1.472c.802.158 1.632.241 2.48.241v-1.5zm-2.19-.213a11.269 11.269 0 0 1-7.897-6.05l-1.344.667a12.769 12.769 0 0 0 8.95 6.855l.29-1.472zm.36 1.312.093-.125-1.198-.902-.094.125 1.198.902zm3.711-1.256c-.61.103-1.24.157-1.881.157v1.5c.725 0 1.437-.06 2.13-.177l-.249-1.48zm.875.793v-.053h-1.5v.053h1.5zM29.25 13.5a11.2 11.2 0 0 1-1.248 5.155l1.333.688A12.698 12.698 0 0 0 30.75 13.5h-1.5zm-1.248 5.155a11.264 11.264 0 0 1-8.12 5.938l.248 1.48a12.764 12.764 0 0 0 9.205-6.73l-1.333-.688zm2.85 2.273c-.692-1.197-1.122-1.958-1.668-2.474l-1.03 1.09c.347.328.653.843 1.398 2.134l1.3-.75zM7.286 19.693a.927.927 0 0 1 .288-.2l-.666-1.344a2.4 2.4 0 0 0-.75.554l1.128.99z" fill="#75605F"/></svg><svg version="1.0" viewBox="0 0 728 728" id="safari-pinned-tab" xmlns="http://www.w3.org/2000/svg"><path d="M99.3 1.9c-11 3.2-17.3 8.9-23.9 21.4-3.3 6.3-9.8 23.7-8.9 23.7.3 0 0 1.1-.5 2.6-.6 1.4-1.2 3.9-1.5 5.7-.4 1.8-1 5.1-1.6 7.5-.5 2.3-1.2 5.9-1.4 8-.3 2-.8 4.8-1 6.2-.3 1.4-.8 4.5-1.1 7-1.1 8.9-1.4 12.2-2.9 30.5-1.5 17.2-2 36.9-1.9 81.5 0 58 .8 79.7 3.9 102.5.5 3.8.9 6.6 2.1 16 .2 2.2.9 6.2 1.4 9 .5 2.7 1.2 6.7 1.5 8.7.2 2.1.9 5.6 1.4 7.8.5 2.2.7 4 .5 4-.3 0-.1.8.5 1.7.5 1 1.1 3.6 1.5 5.8.3 2.2 1 5.5 1.5 7.2.5 1.8.8 3.3.6 3.3-.3 0 0 1.1.5 2.5s1.2 3.6 1.4 4.8c1.4 6.5 3.3 14.2 4.5 17.7.5 1.4 1.9 5.9 3.1 10 5.9 20.2 16.3 48.5 23.6 64.5 1.5 3.3 2.8 6.2 2.9 6.5 1.6 6.6 34 63.9 38.5 68 .3.3 1.9 2.5 3.5 5 9.1 13.5 30.2 38 44.4 51.4 3 2.8 6.3 6 7.5 7.1 3.6 3.5 18.5 15.5 19.1 15.5.4 0 1.3.7 2.1 1.5 2.3 2.2 24 16.5 25.2 16.5.6 0 1.2.3 1.4.8.6 1.4 31 16 34.9 16.7 1.2.2 2.6.8 3.3 1.3 1.2 1.1 17.5 6.2 27.3 8.7 8 2 17.6 3.9 24.3 4.9 12.5 1.7 13 1.9 13.1 3.5 0 .9.1 5.4.1 10.1l.1 8.5h-3.7c-2 0-3.6.2-3.6.5s-9.3.5-20.8.6c-30.7.1-64.2 1.6-91.2 4-3 .3-7.7.7-10.5.9-2.7.2-7 .6-9.5.9-2.5.4-6.3.8-8.5 1-4 .4-9 1.1-15.5 2.2-1.9.3-4.6.8-6 1-1.4.2-3.6.7-5 1-1.4.3-3.5.8-4.8 1-5 1-13.1 4.6-13.7 6.2-.7 1.9 3.3 5.7 6.9 6.5 1.2.3 5 1.3 8.6 2.2 3.6.9 7.6 1.8 9 2 1.4.2 2.5.4 2.5.5 0 .1 2 .3 4.4.6 2.5.2 5.6.6 7 .9 1.4.3 4.9.8 7.6 1.1 2.8.3 6.6.7 8.5 1 1.9.2 6.7.7 10.5 1 3.9.3 9.3.7 12 .9 2.8.3 9.3.7 14.5 1 5.2.3 12.7.8 16.5 1 41.8 2.7 158.8 2.7 199 0 3.3-.2 10.3-.6 15.5-1 5.2-.3 11.3-.7 13.5-1 2.2-.2 7.4-.7 11.5-1 4.1-.4 9.3-.8 11.5-1.1 2.2-.2 6.3-.6 9-.8 2.8-.2 6.1-.7 7.5-1 2.4-.5 6.8-1.2 13.4-2.1 1.5-.3 3.6-.7 4.6-1 1-.3 2.9-.8 4.2-1 5.9-1.1 10.7-2.9 13.4-5 2.6-2 2.7-2.4 1.4-4-1.8-2.1-6.9-4.4-12.5-5.7-9.3-2.1-18.1-3.6-18.7-3.1-.5.2-.8.1-.8-.4 0-.4-1.2-.8-2.7-.9-3.2-.1-14.2-1.3-17-1.8-3.1-.6-20.2-2.1-34.8-3-32.7-2.1-42.5-2.6-68.6-3.2-25-.6-22.9-.5-30.5-.4-3.1.1-5.8-.1-6.1-.4-.5-.5-.6-3.4-.4-14.7l.1-4.5h7.8c7.4-.1 24.3-1.1 31-2 8.7-1.1 10.7-1.4 14.3-1.9 2.1-.3 5.1-.8 6.6-1 1.5-.2 3.7-.6 4.8-.8 1.1-.2 3.8-.8 6-1.2 2.2-.5 4.5-.9 5-1.1.6-.1 3-.7 5.5-1.3 2.5-.7 5.3-1.3 6.3-1.6 1-.2 2.7-.7 3.7-1 1-.3 2.7-.7 3.7-.9 9.5-1.9 40.7-13.9 56.4-21.6 43.7-21.6 76.6-48.2 107.3-87 .6-.8 3.8-5.6 7-10.5 3.2-5 6.6-10.1 7.5-11.5 1.7-2.6 6.1-11.3 10.4-21 5.1-11.3 9.5-26.2 11.4-38.5.9-6.4 1-27.5.1-34-1.3-9.6-6-22.5-11.3-31-1.4-2.2-2.8-4.7-3.2-5.5-.3-.8-.9-1.7-1.2-2-.3-.3-2.4-2.8-4.5-5.5-8.8-11.2-23.4-23.6-31.3-26.6-1.5-.6-4.1-1.6-5.8-2.4-6.3-2.8-16.9-4.7-27-4.8-6.5-.1-19.6 1-21.7 1.8-.7.3-2.6.7-4.3.9-4.5.6-18.6 4.1-30.5 7.6-5.8 1.7-11.2 3.3-12 3.5-.8.2-1.6.4-1.7.5-.2.2-.6.3-1 .4-.5.2-2.8.9-5.3 1.6-2.5.7-4.7 1.4-5 1.4-.3.1-.9.4-1.5.7-.5.4-2.6 1-4.5 1.4-1.9.4-4.1 1.2-4.7 1.7-.7.6-1.3.8-1.3.5 0-.6-6.5.9-9.5 2.3-4.5 2-25 6.1-30.8 6.2-13.5.2-23.1-4-29.4-12.9-2.8-3.9-7.3-14-6.6-14.7.3-.2.1-1.1-.3-1.8-.5-.7-.9-2-1.1-2.8-.3-1.9-1.5-15.1-1.5-16.5 0-2.7 1.2-19.3 1.5-21.5.3-1.4.7-4.3 1.1-6.5.3-2.3.9-5.2 1.2-6.5.3-1.4.7-3.6 1-5 .3-1.4 1.2-5 2-8s1.7-6.6 2-8c.3-1.4 2.3-7.7 4.5-14s4.1-12.2 4.4-13c.4-1.9 2.2-6.5 4-10.5.7-1.6 3.7-8.4 6.6-15 2.8-6.6 5.6-12.2 6-12.3.5-.2.9-1 .9-1.8 0-1.3 5.8-13.2 7-14.4.3-.3 1.5-2.5 2.7-5 2.5-5.1 6.9-12.8 10.5-18.6 1.4-2.1 2.5-4.3 2.6-4.8 0-.5.4-1.2.9-1.5.5-.3 2.4-3.1 4.2-6.1 1.9-3 3.9-5.8 4.5-6.2.6-.4.7-.8.3-.8-.4 0 .6-2 2.3-4.5 1.7-2.5 2.7-4.5 2.3-4.5-.4 0-.3-.4.3-.8 3.7-2.3 18.2-38.4 19.9-49.3 2.2-13.7 2.3-18.2 1-27.4-1-6.8-.8-6.1-2.3-9.8-.7-1.6-1.2-3.1-1.2-3.5 0-2-7.7-11.7-12-15.1-7.9-6.3-14.7-8.4-27-8.6-6.5-.1-11.9.3-14.2 1.1-2.1.7-3.8 1.1-3.8.9 0-.5-5.1 1.6-13.2 5.2-3.2 1.5-5.8 3-5.8 3.5 0 .4-.4.8-1 .8-.5 0-3.4 1.6-6.4 3.5-3 1.9-5.9 3.5-6.5 3.5-.5 0-1.1.4-1.3.9-.3.7-27.5 14.3-36.8 18.4-1.9.8-5.6 2.4-8.2 3.6-2.6 1.2-5 2.1-5.3 2.1-.4 0-2.1.7-3.8 1.5C356 79.6 333.2 88 332 88c-.6 0-1.8.4-2.8.9-.9.6-5.1 2-9.2 3.1-4.1 1.2-8.2 2.4-9 2.7-1.9.8-1.4.6-16.2 4.2-7 1.7-14.2 3.3-16 3.6-1.8.2-4.4.7-5.8 1-3.2.7-10.4 1.5-21 2.4-27.8 2.3-51.5-3.6-64.3-16.2-6.3-6.1-9.2-10.9-14.2-23.2-9.7-23.6-17.9-40.1-20.7-41.3-.5-.2-.8-.9-.8-1.5-.1-.7-1.8-3-4-5.2-5.1-5-6.5-3.9-4 3.2 1 2.9 1.7 5.3 1.5 5.3-.2 0 .3 2.1 1.1 4.7.8 2.7 2.2 7.9 3 11.8.9 3.8 1.7 7.7 1.9 8.5.7 2.5 4.6 20.3 5.1 23 .2 1.4.9 4.7 1.4 7.5 1.5 7.8 2.3 12 3.4 19 1 6.4 1.8 11.3 2.1 13.5.9 5.2 2.5 17.2 3 21.3.3 2.3.7 6.4 1.1 9.2.3 2.7.7 6.1.8 7.5.2 1.4.7 6.1 1 10.4.4 4.4.9 9.3 1.1 11 .4 2.9 1.3 15.5 2 27.1 1.2 18.2 1.8 47.8 2 93 .2 28.6.5 54 .9 56.5.8 6.2 1.6 12.2 1.9 14 1.3 6.7 2.3 10 4.1 13.5 1.7 3.2 2.7 4.1 5.2 4.3 4 .4 19.1-4.6 26.6-8.8 2-1.1 21.7-9.1 23.3-9.4.6-.2 3.5-1 6.5-1.9 3-.9 6.9-1.9 8.5-2.1 1.7-.3 4.1-.8 5.5-1.1 1.4-.2 3.9-.7 5.5-1 3.5-.6 22.7-.6 30.5 0 7.1.6 14.5 1.3 14.5 1.5 0 .2 2.8.7 7.2 1.3 14.7 2.1 34.1 8.8 50.3 17.3 12.1 6.5 35.5 22.2 41.2 27.7.7.7 2.2 1.9 3.4 2.7 1.1.8 4.2 3.3 6.8 5.5 2.6 2.2 5.7 4.8 6.9 5.8 10.6 8.8 31.2 28.4 59.7 56.4 12.9 12.7 24.9 24.3 26.5 25.8 3.7 3.2 15.4 11.5 16.2 11.5.4 0 1.4.6 2.2 1.4 5.5 5 29.4 14.1 40 15.3 17 2 35.1-1.3 46.1-8.2 2.2-1.4 4.2-2.5 4.5-2.5.3 0 2.7-1.6 5.5-3.6 3-2.2 4.8-3 4.4-2-.3.9-.9 1.6-1.3 1.6-.3 0-1.8 1.1-3.3 2.4-1.4 1.4-2.9 2.2-3.2 1.9-.3-.4-.6-.1-.6.5s-1.1 1.7-2.4 2.4c-1.3.7-4.2 2.3-6.4 3.5-17.1 9.5-39.8 11.2-61.7 4.8-8.7-2.5-25.7-10.1-26.3-11.7-.2-.4-.9-.8-1.5-.8-.7 0-3.4-1.6-6.2-3.5-2.7-2-6.6-4.6-8.5-5.9-1.9-1.3-6.2-5-9.6-8.2-5.2-5-18.2-17.2-32.4-30.4-2.1-1.9-7.3-6.7-11.6-10.5-4.2-3.9-8.6-7.9-9.8-9-1.2-1.1-5.3-4.7-9.1-8-3.9-3.3-7.2-6.3-7.5-6.6-.6-.8-7-6.1-12.4-10.4-2.1-1.7-4.8-3.8-6-4.9-3.4-3-16.5-12.9-23.6-17.7-23.3-16.2-49-27.4-69.8-30.5-2-.3-4.4-.7-5.2-.9-.8-.2-4.2-.7-7.5-1-3.3-.3-8-.8-10.5-1.1-5.9-.6-23.5-.5-28 .2-4.6.7-7 1.1-10 1.8-1.4.3-3.8.9-5.5 1.2-1.6.3-3.4.9-4 1.2-.5.4-1.6.7-2.4.8-.7.2-3.9 1.3-7 2.5-5.2 2.1-8.5 3.4-18.6 7.9-22.7 10-33.2 11.3-40.1 5.2-7.5-6.7-10.9-18.4-12.9-44.2-.6-6.7-.5-46.3.1-69.5.8-32.2.3-75.9-1-95.5-.3-3.6-.8-11-1.1-16.5-.4-5.5-.8-12-1-14.5-.5-7.8-1.5-19.4-2-22.6-.2-1.7-.7-5.7-1-9-.3-3.2-.8-7.5-1-9.4-.3-1.9-.8-6.2-1.1-9.5-.3-3.3-.7-6.2-.9-6.5-.2-.3-.6-3.3-1-6.5-.4-3.3-.9-7.1-1.1-8.5-.3-1.4-.7-4.1-.9-6-.5-3.2-1.9-11.5-3.2-18-.2-1.4-.6-3.6-.8-5-.2-1.4-.4-2.5-.5-2.5-.1 0-.4-1.4-.6-3-1.1-7.1-1.2-8-1.4-8.3-.3-.2-.4-.5-1.4-5.2-2.5-11.4-4.9-16.3-10.7-22.1-3.3-3.3-6.7-5.9-7.7-5.9s-2.3-.5-2.8-1C120.3-.1 106-.1 99.3 1.9z"/></svg></svg>